<svg xmlns="http://www.w3.org/2000/svg" viewBox="0 0 471.14 57.5142" fill="none" role="img" aria-label="Toyoparts">
  <path d="M304.67 2.18422H270.17C269.435 6.54222 272.373 10.6702 276.73 11.4042C277.239 11.4872 277.755 11.5212 278.27 11.5042H300.08C301.683 11.5462 302.969 12.8412 303 14.4442C303.01 14.5872 303.01 14.7312 303 14.8742L302.59 17.9942H278.28C271.209 18.1832 265.3 23.4342 264.28 30.4342C263.31 36.1812 267.183 41.6262 272.93 42.5942C273.637 42.7152 274.354 42.7622 275.07 42.7342H299.19C305.582 42.5802 310.943 37.8642 311.91 31.5442L314.28 13.5442C315.05 7.46422 310.93 2.23422 304.67 2.18422ZM300.67 32.1042H278.44C276.927 32.1662 275.65 30.9882 275.59 29.4742C275.57 29.2712 275.57 29.0672 275.59 28.8642C275.867 27.0462 277.412 25.6912 279.25 25.6542H301.54L300.67 32.1042Z" fill="#E10600"/>
  <path d="M251.15 2.21424H214.56L213.07 13.6942L207.28 57.5142C213.688 57.3652 219.058 52.6242 220 46.2842L220.47 42.7642H245.83C252.211 42.5952 257.542 37.8522 258.45 31.5342L260.84 13.5342C261.754 8.28423 258.248 3.28423 253 2.35423C252.406 2.25223 251.803 2.20524 251.2 2.21424H251.15ZM249.44 14.8742L247.64 28.8042C247.339 30.7012 245.731 32.1162 243.81 32.1742H221.81L224.52 11.5042H246.52C248.144 11.4982 249.465 12.8102 249.47 14.4342C249.48 14.5802 249.48 14.7272 249.47 14.8742H249.44Z" fill="#E10600"/>
  <path d="M34.68 2.18422H0C0.734 7.12922 4.71099 10.9582 9.67999 11.5042H16.89L16.73 12.7442L14.31 31.1742L13.54 37.0942C13.066 39.6722 14.764 42.1492 17.34 42.6342C17.704 42.6972 18.072 42.7212 18.44 42.7042C21.64 42.6382 24.32 40.2622 24.77 37.0942L25.57 31.1742L28 12.7442L28.18 11.5042H45.32C44.506 6.22723 40.019 2.29622 34.68 2.18422Z" fill="#E10600"/>
  <path d="M92.3 2.16423H66.44C60.033 2.37223 54.687 7.12523 53.73 13.4642L51.36 31.4642C50.46 36.6782 53.957 41.6342 59.17 42.5342C59.83 42.6522 60.501 42.6962 61.17 42.6642H87C93.392 42.5012 98.75 37.7842 99.72 31.4642L102.09 13.4642C102.948 8.14823 99.32 3.14822 94 2.31422C93.439 2.21922 92.87 2.16923 92.3 2.16423ZM90.5 16.0842L88.8 28.7042C88.539 30.5992 86.913 32.0072 85 31.9942H65.91C64.332 32.0792 62.986 30.8632 62.91 29.2842C62.9 29.0912 62.9 28.8972 62.91 28.7042L64.6 16.0842C64.92 14.2242 66.495 12.8412 68.38 12.7642H87.56C89.168 12.7132 90.512 13.9762 90.56 15.5842C90.55 15.7522 90.53 15.9192 90.5 16.0842Z" fill="#E10600"/>
  <path d="M459.81 11.5342C464.99 11.5342 469.98 7.36422 471.14 2.18422H439.06C432.16 2.18422 425.52 7.79422 424.06 14.5942C423.888 15.4402 423.804 16.3012 423.81 17.1642C423.81 22.7842 427.81 26.9042 433.81 26.9042H454.26C455.365 26.8702 456.288 27.7392 456.32 28.8442V29.4742C455.969 30.9642 454.651 32.0262 453.12 32.0542H429.38C423.204 32.3002 417.952 36.6362 416.54 42.6542H452.32C459.22 42.6542 465.86 37.1442 467.32 30.3242C467.518 29.4432 467.632 28.5462 467.66 27.6442C467.66 22.1342 463.51 17.9142 457.56 17.9142H437.13C436.921 17.9222 436.711 17.8952 436.51 17.8342C436.188 17.7742 435.878 17.6622 435.59 17.5042C433.32 16.2642 434.12 13.1542 436.05 11.9942C436.591 11.6562 437.213 11.4702 437.85 11.4542L459.81 11.5342Z" fill="#E10600"/>
  <path d="M408.14 2.18422H373.44C374.174 7.12922 378.151 10.9582 383.12 11.5042H390.33L390.18 12.7442L387.76 31.1742L387 37.0942C386.471 40.0872 388.833 42.8082 391.87 42.7042C395.07 42.6382 397.75 40.2622 398.2 37.0942L399 31.1742L401.46 12.7442L401.64 11.5042H418.81C417.994 6.21623 413.491 2.28222 408.14 2.18422Z" fill="#E10600"/>
  <path d="M361.75 25.5342C365.713 23.5902 368.594 19.9712 369.6 15.6742C370.91 9.42422 367.54 2.90422 360.1 2.18422H323.62L322.13 13.5642L320.32 27.3442L320.2 28.2442L319 37.1242C318.561 39.7702 320.354 42.2702 323 42.7042C323.311 42.7542 323.626 42.7742 323.94 42.7642C327.176 42.6832 329.899 40.3172 330.43 37.1242L331.74 26.9942H348.68C351.3 30.8842 353.93 34.7942 356.61 38.5342C360.476 43.8052 367.548 45.5742 373.44 42.7442L361.75 25.5342ZM358.44 17.4242C357.906 17.7762 357.28 17.9632 356.64 17.9642H333L333.85 11.5042H357.47C358.011 11.5042 358.542 11.6452 359.01 11.9142C361.23 13.1542 360.44 16.2642 358.44 17.4242Z" fill="#E10600"/>
  <path d="M136.94 3.67422L127.34 13.9242L126.8 14.4942L121.16 6.17422C119.979 4.43022 118.339 3.04522 116.42 2.17422C113.015 0.514219 109.036 0.514219 105.63 2.17422L120.63 24.3942L119 37.0842C118.561 39.7302 120.354 42.2302 123 42.6642C123.331 42.7142 123.666 42.7342 124 42.7242C127.235 42.6392 129.956 40.2752 130.49 37.0842L132 24.3942L152.8 2.17422C147.844 -1.21578 141.173 -0.585782 136.94 3.67422Z" fill="#E10600"/>
  <path d="M195.3 2.16423H169.44C163.031 2.37123 157.681 7.12323 156.72 13.4642L154.36 31.4642C153.46 36.6782 156.957 41.6342 162.17 42.5342C162.83 42.6522 163.501 42.6962 164.17 42.6642H190C196.392 42.5012 201.75 37.7842 202.72 31.4642L205.09 13.4642C205.948 8.14823 202.32 3.14822 197 2.31422C196.439 2.21922 195.87 2.16923 195.3 2.16423ZM193.5 16.0842L191.8 28.7242C191.558 30.6352 189.927 32.0642 188 32.0542H168.92C167.353 32.1512 166.006 30.9522 165.92 29.3842C165.9 29.1782 165.9 28.9702 165.92 28.7642L167.54 16.1542C167.86 14.2912 169.441 12.9062 171.33 12.8342H190.51C192.09 12.7662 193.43 13.9852 193.51 15.5642C193.527 15.7372 193.524 15.9122 193.5 16.0842Z" fill="#E10600"/>
</svg>
